PathFileType	4	(X/Y/Z)	0_coords_data.trc
DataRate	CameraRate	NumFrames	NumMarkers	Units	OrigDataRate	OrigDataStartFrame	OrigNumFrames
30.0	30.0	6	21	m	30.0	10	65
Frame#	Time	THUMB_TIP	THUMB_IP	THUMB_MCP	THUMB_CMC	INDEX_TIP	INDEX_DIP	INDEX_PIP	INDEX_MCP	MIDDLE_TIP	MIDDLE_DIP	MIDDLE_PIP	MIDDLE_MCP	RING_TIP	RING_DIP	RING_PIP	RING_MCP	PINKY_TIP	PINKY_DIP	PINKY_PIP	PINKY_MCP	WRIST
X1	Y1	Z1	X2	Y2	Z2	X3	Y3	Z3	X4	Y4	Z4	X5	Y5	Z5	X6	Y6	Z6	X7	Y7	Z7	X8	Y8	Z8	X9	Y9	Z9	X10	Y10	Z10	X11	Y11	Z11	X12	Y12	Z12	X13	Y13	Z13	X14	Y14	Z14	X15	Y15	Z15	X16	Y16	Z16	X17	Y17	Z17	X18	Y18	Z18	X19	Y19	Z19	X20	Y20	Z20	X21	Y21	Z21
8	0.2999999999999987	0.5334527307699705	-0.011825592575435251	-0.1049368460056938	0.5141529618742807	-0.012932215951822923	-0.11735837188924768	0.4832205561508368	-0.016004015285396078	-0.11896159520947286	0.47745579324434817	-0.02661879624063479	-0.07601996117088189	0.4980124715206714	-0.0049420298673595875	-0.10985328230824168	0.5143801735785629	-0.004256648245351213	-0.11757523681317839	0.5285768522121723	0.01588068264385134	-0.12257043985537634	0.49389926177885335	0.03408432424346863	-0.10584536143249071	0.49865947392289245	-0.01696977181566084	-0.0978703770054048	0.5161874271254355	-0.012909012026349198	-0.09993945565615105	0.5377746601990132	0.006338897327524129	-0.10353374330909505	0.5079606418600761	0.03498304348889003	-0.08659901206907147	0.5029955724049979	-0.00744979426881498	-0.08844664342080413	0.5180987526131801	-0.015023005450077842	-0.08215852605523491	0.541137797095784	-0.006677841677161345	-0.08660157117449746	0.5233496652474446	0.02557949352854283	-0.06993521210081471	0.503952553217164	-0.02079397457616472	-0.0629926512793533	0.5187911366571579	-0.02630889006274484	-0.06950434450540577	0.5388337450961409	-0.020126738238643638	-0.07044607949221018	0.5287244172512985	0.00927084861498717	-0.05215764520414895	0.4622830810018609	-0.023011742144276925	-0.051989820119430985
9	0.33333333333333187	0.5333888472803507	-0.01193879542757259	-0.10508922383246944	0.5140635710787708	-0.01301014735042183	-0.11747413016195193	0.48312422684552847	-0.01605386481277471	-0.11899490707731761	0.477420701245172	-0.026642179395220622	-0.07603856423916106	0.49794142919159434	-0.0049458455110628075	-0.10992643424494758	0.5142996921943369	-0.004369402331824146	-0.11767723709331215	0.5285568173414787	0.015716444430100784	-0.12270744339079202	0.4939672503772421	0.034003350545819044	-0.10589117103507972	0.4986162829874793	-0.017185662183721306	-0.09793896429986523	0.5161099363084486	-0.013003586286842284	-0.10005611679283366	0.5377461771295537	0.006177071134547907	-0.10371467033411294	0.508036748245319	0.03487256435305386	-0.08668333376532689	0.502795244355536	-0.0076372923279688365	-0.08818392529183719	0.5180799938246862	-0.015158091228930082	-0.08228358483076101	0.5411268557869289	-0.006882008431086439	-0.08681443311961073	0.5234525806741996	0.02539879486793839	-0.07007255235282628	0.503953302873214	-0.020856056229734188	-0.06312578128268481	0.5187544728563143	-0.02646251045314807	-0.06964444971819639	0.5388101167693351	-0.020335146909088886	-0.07066355826641077	0.5288176724899476	0.009076801798373224	-0.05233402522399655	0.4622830810018608	-0.023011742144276925	-0.051989820119430985
10	0.3666666666666651	0.533314991514314	-0.01200405498208823	-0.10526952700975865	0.5139557761090507	-0.013064236909489324	-0.11760227987249888	0.4830106784684478	-0.016090955815935115	-0.11903751667348741	0.47737720952043006	-0.026649943268456933	-0.07606471351161295	0.49787058343157353	-0.005053779054901564	-0.11000474548497696	0.5142082032984365	-0.004463639119167806	-0.11779794200130686	0.5285005693994295	0.015594787122644838	-0.12283754922181073	0.4939817584178332	0.0339446649486872	-0.10594465822630193	0.49851448206043214	-0.017209428044274944	-0.09808919483057274	0.5160258723120449	-0.013089522377403795	-0.10018146363543629	0.5376938688550866	0.006046431909356942	-0.10388588387964943	0.5080769273971082	0.034787952201153716	-0.08677127868435147	0.5038969020675678	-0.006578338297254738	-0.0894798574800369	0.5180463639520997	-0.015236773729632835	-0.0824212298342745	0.5410998233751632	-0.007021436029577499	-0.08702842139782119	0.5235181184412088	0.02526670044856416	-0.07020341832548058	0.5039604428171333	-0.020962531190650946	-0.0632125205765805	0.5187345721318503	-0.026576186316021433	-0.06978610248642372	0.5387968798900428	-0.02048389920385363	-0.07088148559679228	0.5288877362591033	0.008928771965673321	-0.052507942166775956	0.4622830810018608	-0.023011742144276925	-0.051989820119430985
11	0.39999999999999825	0.533286273802993	-0.011986810383068258	-0.10544511026002497	0.5138783913133048	-0.013033157822008201	-0.11770232259821503	0.48293090138426	-0.01606527916309386	-0.11907312793253555	0.47732713838109986	-0.02663299343051595	-0.07609858598772201	0.49781059983960885	-0.005036384684767303	-0.11006715176164966	0.5141317161838672	-0.004499268705831505	-0.11789866934781112	0.5284282586606102	0.015557362889881965	-0.1229335710593158	0.49396520965346213	0.0339384450952277	-0.10596094120736789	0.4983838230971762	-0.017095345142797536	-0.0982949905959726	0.5159333157578493	-0.013091522190854854	-0.10029116421629652	0.5376214732697098	0.006014875813036058	-0.1040300048196982	0.5080695575927427	0.034765407625153455	-0.0868184063656946	0.503669303263599	-0.006660048272924879	-0.08927681308427479	0.5180115557694562	-0.01526412979823466	-0.08254854628189148	0.5410624990059308	-0.007071915882355118	-0.08720919281057148	0.5235392587833692	0.02520360706612701	-0.07029921041837459	0.5039638250197365	-0.021005323045536706	-0.06329217058138295	0.51870819939392	-0.02662879816414232	-0.06992390880784688	0.5387722202664575	-0.020555241282707692	-0.0710896670307907	0.5289282622814793	0.008841384393830753	-0.05265550469496799	0.4622830810018609	-0.023011742144276925	-0.051989820119430985
12	0.43333333333333146	0.5332664994248839	-0.011922148686810963	-0.10557845223623206	0.513813621729519	-0.012971187313399524	-0.11776389713287415	0.48286298025670016	-0.015996524281590596	-0.11907733866180534	0.4773116430092984	-0.02662114460204268	-0.07611002436579833	0.49776289868860546	-0.004955493520852894	-0.11014314616485041	0.5140870112450167	-0.004465784884203461	-0.11797152624611931	0.5283897584015406	0.015587532550731753	-0.12300200501361992	0.4939566510902458	0.03395240218734352	-0.10595123441170545	0.4983045233030008	-0.016954982083577708	-0.0984342328054151	0.5158861172598459	-0.013065770867137005	-0.10037371470802177	0.5375870983798713	0.006021530773760664	-0.10413561376271391	0.5080742275933242	0.034755222387663265	-0.08682915990371329	0.5057307508794165	-0.005178115739505884	-0.09111970267089306	0.518011841906546	-0.015302806550394954	-0.08265415843751617	0.5410531227889854	-0.007106567860073354	-0.08735533123032173	0.52356930703572	0.02514361980226354	-0.07035643666479402	0.5039688927718317	-0.021064888401201687	-0.06334359322914132	0.5186922258603937	-0.02665152513915925	-0.0700527625310266	0.5387583132921653	-0.020592240457997013	-0.07125659945234467	0.5289581713602558	0.00877649750374987	-0.05275476441771426	0.4622830810018608	-0.023011742144276925	-0.051989820119430985
13	0.4666666666666647	0.5332399029359581	-0.011819008888259264	-0.10569875063189206	0.5137447287661282	-0.012886210716595903	-0.1178148252580074	0.4827906984328927	-0.01590249088579143	-0.1190678456369526	0.47731630597613983	-0.026603841083378432	-0.07610970169220033	0.4977336500598456	-0.004951567098662735	-0.11010880491308296	0.5140371412637931	-0.004418921379289009	-0.11797725222500169	0.5283602326284563	0.015618587200462164	-0.12301283924896528	0.4939630411611453	0.03399516785474144	-0.1059022987368157	0.4982709237759928	-0.01671490574847878	-0.09849001451232861	0.515880336104852	-0.0129435241389797	-0.10040972235149433	0.5376035669629248	0.006115190770077938	-0.10418810522014828	0.5080716826913182	0.03477738303368938	-0.08679573715216501	0.5078201956293887	-0.004137692197994425	-0.09255276819688177	0.5180191178138281	-0.01527541078770056	-0.08270730168217227	0.541058424698483	-0.007092224255355606	-0.08744077561275897	0.5235835642886364	0.025122193192501974	-0.07036502098370806	0.5039843671316472	-0.021071193567131496	-0.06332717270035845	0.5186823210020194	-0.02663468616032527	-0.07011080758070792	0.5387536298073553	-0.020598824738415233	-0.07134488972397982	0.528970559219328	0.008749343131092102	-0.05280142662851428	0.4622830810018609	-0.023011742144276925	-0.051989820119430985
